<mxfile host="Electron" agent="Mozilla/5.0 (Windows NT 10.0; Win64; x64) AppleWebKit/537.36 (KHTML, like Gecko) draw.io/26.0.9 Chrome/128.0.6613.186 Electron/32.2.5 Safari/537.36" version="26.0.9">
  <diagram name="第 1 页" id="OUSfcp7HQERARZKGj-KC">
    <mxGraphModel dx="1715" dy="983" grid="1" gridSize="10" guides="1" tooltips="1" connect="1" arrows="1" fold="1" page="1" pageScale="1" pageWidth="827" pageHeight="1169" math="0" shadow="0">
      <root>
        <mxCell id="0" />
        <mxCell id="1" parent="0" />
        <mxCell id="_-v78vKhf8W7zaVlKxdu-35" value="" style="rounded=0;whiteSpace=wrap;html=1;opacity=20;strokeColor=light-dark(#e81717, #ededed);strokeWidth=2;" vertex="1" parent="1">
          <mxGeometry x="190" y="270" width="460" height="140" as="geometry" />
        </mxCell>
        <mxCell id="_-v78vKhf8W7zaVlKxdu-1" value="输入" style="text;html=1;align=center;verticalAlign=middle;whiteSpace=wrap;rounded=0;" vertex="1" parent="1">
          <mxGeometry x="70" y="200" width="60" height="30" as="geometry" />
        </mxCell>
        <mxCell id="_-v78vKhf8W7zaVlKxdu-14" value="I" style="whiteSpace=wrap;html=1;aspect=fixed;" vertex="1" parent="1">
          <mxGeometry x="200" y="200" width="40" height="40" as="geometry" />
        </mxCell>
        <mxCell id="_-v78vKhf8W7zaVlKxdu-15" value="&lt;span style=&quot;text-align: left;&quot;&gt;love&lt;/span&gt;" style="whiteSpace=wrap;html=1;aspect=fixed;" vertex="1" parent="1">
          <mxGeometry x="280" y="200" width="40" height="40" as="geometry" />
        </mxCell>
        <mxCell id="_-v78vKhf8W7zaVlKxdu-16" value="&lt;span style=&quot;text-align: left;&quot;&gt;&lt;font style=&quot;font-size: 10px;&quot;&gt;beautiful&lt;/font&gt;&lt;/span&gt;" style="whiteSpace=wrap;html=1;aspect=fixed;" vertex="1" parent="1">
          <mxGeometry x="360" y="200" width="40" height="40" as="geometry" />
        </mxCell>
        <mxCell id="_-v78vKhf8W7zaVlKxdu-18" value="&lt;span style=&quot;text-align: left;&quot;&gt;flower&lt;/span&gt;" style="whiteSpace=wrap;html=1;aspect=fixed;" vertex="1" parent="1">
          <mxGeometry x="440" y="200" width="40" height="40" as="geometry" />
        </mxCell>
        <mxCell id="_-v78vKhf8W7zaVlKxdu-19" value="&lt;span style=&quot;text-align: left;&quot;&gt;.&lt;/span&gt;" style="whiteSpace=wrap;html=1;aspect=fixed;" vertex="1" parent="1">
          <mxGeometry x="520" y="200" width="40" height="40" as="geometry" />
        </mxCell>
        <mxCell id="_-v78vKhf8W7zaVlKxdu-20" value="logits" style="text;html=1;align=center;verticalAlign=middle;whiteSpace=wrap;rounded=0;" vertex="1" parent="1">
          <mxGeometry x="70" y="280" width="60" height="30" as="geometry" />
        </mxCell>
        <mxCell id="_-v78vKhf8W7zaVlKxdu-40" style="edgeStyle=orthogonalEdgeStyle;rounded=0;orthogonalLoop=1;jettySize=auto;html=1;entryX=0.5;entryY=0;entryDx=0;entryDy=0;" edge="1" parent="1" source="_-v78vKhf8W7zaVlKxdu-21" target="_-v78vKhf8W7zaVlKxdu-29">
          <mxGeometry relative="1" as="geometry" />
        </mxCell>
        <mxCell id="_-v78vKhf8W7zaVlKxdu-21" value="&lt;i&gt;I&lt;/i&gt;" style="whiteSpace=wrap;html=1;aspect=fixed;fillColor=#dae8fc;strokeColor=#6c8ebf;" vertex="1" parent="1">
          <mxGeometry x="200" y="280" width="40" height="40" as="geometry" />
        </mxCell>
        <mxCell id="_-v78vKhf8W7zaVlKxdu-41" style="edgeStyle=orthogonalEdgeStyle;rounded=0;orthogonalLoop=1;jettySize=auto;html=1;entryX=0.5;entryY=0;entryDx=0;entryDy=0;" edge="1" parent="1" source="_-v78vKhf8W7zaVlKxdu-22" target="_-v78vKhf8W7zaVlKxdu-30">
          <mxGeometry relative="1" as="geometry" />
        </mxCell>
        <mxCell id="_-v78vKhf8W7zaVlKxdu-22" value="&lt;span style=&quot;text-align: left;&quot;&gt;&lt;i&gt;love&lt;/i&gt;&lt;/span&gt;" style="whiteSpace=wrap;html=1;aspect=fixed;fillColor=#dae8fc;strokeColor=#6c8ebf;" vertex="1" parent="1">
          <mxGeometry x="280" y="280" width="40" height="40" as="geometry" />
        </mxCell>
        <mxCell id="_-v78vKhf8W7zaVlKxdu-43" style="edgeStyle=orthogonalEdgeStyle;rounded=0;orthogonalLoop=1;jettySize=auto;html=1;exitX=0.5;exitY=1;exitDx=0;exitDy=0;entryX=0.5;entryY=0;entryDx=0;entryDy=0;" edge="1" parent="1" source="_-v78vKhf8W7zaVlKxdu-23" target="_-v78vKhf8W7zaVlKxdu-31">
          <mxGeometry relative="1" as="geometry" />
        </mxCell>
        <mxCell id="_-v78vKhf8W7zaVlKxdu-23" value="&lt;span style=&quot;text-align: left;&quot;&gt;&lt;font style=&quot;font-size: 10px;&quot;&gt;&lt;i&gt;beautiful&lt;/i&gt;&lt;/font&gt;&lt;/span&gt;" style="whiteSpace=wrap;html=1;aspect=fixed;fillColor=#dae8fc;strokeColor=#6c8ebf;" vertex="1" parent="1">
          <mxGeometry x="360" y="280" width="40" height="40" as="geometry" />
        </mxCell>
        <mxCell id="_-v78vKhf8W7zaVlKxdu-44" style="edgeStyle=orthogonalEdgeStyle;rounded=0;orthogonalLoop=1;jettySize=auto;html=1;entryX=0.5;entryY=0;entryDx=0;entryDy=0;" edge="1" parent="1" source="_-v78vKhf8W7zaVlKxdu-24" target="_-v78vKhf8W7zaVlKxdu-32">
          <mxGeometry relative="1" as="geometry" />
        </mxCell>
        <mxCell id="_-v78vKhf8W7zaVlKxdu-24" value="&lt;span style=&quot;text-align: left;&quot;&gt;&lt;i&gt;flower&lt;/i&gt;&lt;/span&gt;" style="whiteSpace=wrap;html=1;aspect=fixed;fillColor=#dae8fc;strokeColor=#6c8ebf;" vertex="1" parent="1">
          <mxGeometry x="440" y="280" width="40" height="40" as="geometry" />
        </mxCell>
        <mxCell id="_-v78vKhf8W7zaVlKxdu-52" style="edgeStyle=orthogonalEdgeStyle;rounded=0;orthogonalLoop=1;jettySize=auto;html=1;entryX=0.5;entryY=0;entryDx=0;entryDy=0;" edge="1" parent="1" source="_-v78vKhf8W7zaVlKxdu-25" target="_-v78vKhf8W7zaVlKxdu-49">
          <mxGeometry relative="1" as="geometry" />
        </mxCell>
        <mxCell id="_-v78vKhf8W7zaVlKxdu-25" value="&lt;span style=&quot;text-align: left;&quot;&gt;&lt;i&gt;.&lt;/i&gt;&lt;/span&gt;" style="whiteSpace=wrap;html=1;aspect=fixed;fillColor=#dae8fc;strokeColor=#6c8ebf;" vertex="1" parent="1">
          <mxGeometry x="520" y="280" width="40" height="40" as="geometry" />
        </mxCell>
        <mxCell id="_-v78vKhf8W7zaVlKxdu-28" value="I" style="whiteSpace=wrap;html=1;aspect=fixed;" vertex="1" parent="1">
          <mxGeometry x="130" y="360" width="40" height="40" as="geometry" />
        </mxCell>
        <mxCell id="_-v78vKhf8W7zaVlKxdu-29" value="&lt;span style=&quot;text-align: left;&quot;&gt;love&lt;/span&gt;" style="whiteSpace=wrap;html=1;aspect=fixed;" vertex="1" parent="1">
          <mxGeometry x="200" y="360" width="40" height="40" as="geometry" />
        </mxCell>
        <mxCell id="_-v78vKhf8W7zaVlKxdu-30" value="&lt;span style=&quot;text-align: left;&quot;&gt;&lt;font style=&quot;font-size: 10px;&quot;&gt;beautiful&lt;/font&gt;&lt;/span&gt;" style="whiteSpace=wrap;html=1;aspect=fixed;" vertex="1" parent="1">
          <mxGeometry x="280" y="360" width="40" height="40" as="geometry" />
        </mxCell>
        <mxCell id="_-v78vKhf8W7zaVlKxdu-31" value="&lt;span style=&quot;text-align: left;&quot;&gt;flower&lt;/span&gt;" style="whiteSpace=wrap;html=1;aspect=fixed;" vertex="1" parent="1">
          <mxGeometry x="360" y="360" width="40" height="40" as="geometry" />
        </mxCell>
        <mxCell id="_-v78vKhf8W7zaVlKxdu-32" value="&lt;span style=&quot;text-align: left;&quot;&gt;.&lt;/span&gt;" style="whiteSpace=wrap;html=1;aspect=fixed;" vertex="1" parent="1">
          <mxGeometry x="440" y="360" width="40" height="40" as="geometry" />
        </mxCell>
        <mxCell id="_-v78vKhf8W7zaVlKxdu-33" value="labels" style="text;html=1;align=center;verticalAlign=middle;whiteSpace=wrap;rounded=0;" vertex="1" parent="1">
          <mxGeometry x="70" y="360" width="60" height="30" as="geometry" />
        </mxCell>
        <mxCell id="_-v78vKhf8W7zaVlKxdu-47" value="&lt;span style=&quot;text-align: left;&quot;&gt;&amp;lt;eos&amp;gt;&lt;/span&gt;" style="whiteSpace=wrap;html=1;aspect=fixed;" vertex="1" parent="1">
          <mxGeometry x="600" y="200" width="40" height="40" as="geometry" />
        </mxCell>
        <mxCell id="_-v78vKhf8W7zaVlKxdu-48" value="&lt;span style=&quot;text-align: left;&quot;&gt;&amp;lt;eos&amp;gt;&lt;/span&gt;" style="whiteSpace=wrap;html=1;aspect=fixed;" vertex="1" parent="1">
          <mxGeometry x="600" y="280" width="40" height="40" as="geometry" />
        </mxCell>
        <mxCell id="_-v78vKhf8W7zaVlKxdu-49" value="&lt;span style=&quot;text-align: left;&quot;&gt;&amp;lt;eos&amp;gt;&lt;/span&gt;" style="whiteSpace=wrap;html=1;aspect=fixed;" vertex="1" parent="1">
          <mxGeometry x="520" y="360" width="40" height="40" as="geometry" />
        </mxCell>
        <mxCell id="_-v78vKhf8W7zaVlKxdu-50" value="&lt;span style=&quot;text-align: left;&quot;&gt;-100&lt;/span&gt;" style="whiteSpace=wrap;html=1;aspect=fixed;" vertex="1" parent="1">
          <mxGeometry x="600" y="360" width="40" height="40" as="geometry" />
        </mxCell>
        <mxCell id="_-v78vKhf8W7zaVlKxdu-54" value="&lt;span style=&quot;color: rgb(51, 51, 51); font-family: &amp;quot;Open Sans&amp;quot;, &amp;quot;Clear Sans&amp;quot;, &amp;quot;Helvetica Neue&amp;quot;, Helvetica, Arial, &amp;quot;Segoe UI Emoji&amp;quot;, sans-serif; font-size: 16px; font-style: normal; font-variant-ligatures: normal; font-variant-caps: normal; font-weight: 400; letter-spacing: normal; orphans: 4; text-align: start; text-indent: 0px; text-transform: none; widows: 2; word-spacing: 0px; -webkit-text-stroke-width: 0px; white-space: pre-wrap; background-color: rgb(255, 255, 255); text-decoration-thickness: initial; text-decoration-style: initial; text-decoration-color: initial; display: inline !important; float: none;&quot;&gt;(1, 1, 0, 1, 1, 0)&lt;/span&gt;" style="text;whiteSpace=wrap;html=1;" vertex="1" parent="1">
          <mxGeometry x="315" y="520" width="140" height="40" as="geometry" />
        </mxCell>
        <mxCell id="_-v78vKhf8W7zaVlKxdu-56" value="" style="shape=link;html=1;rounded=0;entryX=0.25;entryY=1;entryDx=0;entryDy=0;" edge="1" parent="1">
          <mxGeometry width="100" relative="1" as="geometry">
            <mxPoint x="325" y="550" as="sourcePoint" />
            <mxPoint x="350" y="550" as="targetPoint" />
          </mxGeometry>
        </mxCell>
        <mxCell id="_-v78vKhf8W7zaVlKxdu-60" value="" style="shape=link;html=1;rounded=0;entryX=0.25;entryY=1;entryDx=0;entryDy=0;" edge="1" parent="1">
          <mxGeometry width="100" relative="1" as="geometry">
            <mxPoint x="360" y="550" as="sourcePoint" />
            <mxPoint x="385" y="550" as="targetPoint" />
          </mxGeometry>
        </mxCell>
        <mxCell id="_-v78vKhf8W7zaVlKxdu-61" value="" style="shape=link;html=1;rounded=0;entryX=0.25;entryY=1;entryDx=0;entryDy=0;" edge="1" parent="1">
          <mxGeometry width="100" relative="1" as="geometry">
            <mxPoint x="395" y="550" as="sourcePoint" />
            <mxPoint x="420" y="550" as="targetPoint" />
          </mxGeometry>
        </mxCell>
        <mxCell id="_-v78vKhf8W7zaVlKxdu-62" value="&lt;font style=&quot;font-size: 8px;&quot;&gt;倒数第一个维度&lt;/font&gt;" style="text;html=1;align=center;verticalAlign=middle;whiteSpace=wrap;rounded=0;" vertex="1" parent="1">
          <mxGeometry x="305" y="565" width="60" height="30" as="geometry" />
        </mxCell>
        <mxCell id="_-v78vKhf8W7zaVlKxdu-63" value="&lt;font style=&quot;font-size: 8px;&quot;&gt;倒数第二个维度&lt;/font&gt;" style="text;html=1;align=center;verticalAlign=middle;whiteSpace=wrap;rounded=0;" vertex="1" parent="1">
          <mxGeometry x="345" y="595" width="60" height="30" as="geometry" />
        </mxCell>
        <mxCell id="_-v78vKhf8W7zaVlKxdu-64" value="&lt;font style=&quot;font-size: 8px;&quot;&gt;倒数第三个维度&lt;/font&gt;" style="text;html=1;align=center;verticalAlign=middle;whiteSpace=wrap;rounded=0;" vertex="1" parent="1">
          <mxGeometry x="375" y="625" width="60" height="30" as="geometry" />
        </mxCell>
        <mxCell id="_-v78vKhf8W7zaVlKxdu-65" value="" style="endArrow=classic;html=1;rounded=0;entryX=0.5;entryY=0;entryDx=0;entryDy=0;" edge="1" parent="1" target="_-v78vKhf8W7zaVlKxdu-62">
          <mxGeometry width="50" height="50" relative="1" as="geometry">
            <mxPoint x="335" y="550" as="sourcePoint" />
            <mxPoint x="595" y="650" as="targetPoint" />
          </mxGeometry>
        </mxCell>
        <mxCell id="_-v78vKhf8W7zaVlKxdu-66" value="" style="endArrow=classic;html=1;rounded=0;" edge="1" parent="1" target="_-v78vKhf8W7zaVlKxdu-63">
          <mxGeometry width="50" height="50" relative="1" as="geometry">
            <mxPoint x="375" y="550" as="sourcePoint" />
            <mxPoint x="565" y="580" as="targetPoint" />
          </mxGeometry>
        </mxCell>
        <mxCell id="_-v78vKhf8W7zaVlKxdu-67" value="" style="endArrow=classic;html=1;rounded=0;entryX=0.539;entryY=0.044;entryDx=0;entryDy=0;entryPerimeter=0;" edge="1" parent="1" target="_-v78vKhf8W7zaVlKxdu-64">
          <mxGeometry width="50" height="50" relative="1" as="geometry">
            <mxPoint x="407" y="550" as="sourcePoint" />
            <mxPoint x="595" y="650" as="targetPoint" />
          </mxGeometry>
        </mxCell>
      </root>
    </mxGraphModel>
  </diagram>
</mxfile>
